<mxfile host="app.diagrams.net" modified="2023-11-06T11:49:25.610Z" agent="Mozilla/5.0 (Windows NT 10.0; Win64; x64) AppleWebKit/537.36 (KHTML, like Gecko) Chrome/119.0.0.0 Safari/537.36" etag="mmUAmSaPtk4YZ5ivnae3" version="22.0.8" type="device" pages="3">
  <diagram id="C5RBs43oDa-KdzZeNtuy" name="Studi Case 1">
    <mxGraphModel dx="944" dy="1576" grid="1" gridSize="10" guides="1" tooltips="1" connect="1" arrows="1" fold="1" page="1" pageScale="1" pageWidth="827" pageHeight="1169" math="0" shadow="0">
      <root>
        <mxCell id="WIyWlLk6GJQsqaUBKTNV-0" />
        <mxCell id="WIyWlLk6GJQsqaUBKTNV-1" parent="WIyWlLk6GJQsqaUBKTNV-0" />
        <mxCell id="pTl-VRT4gUxG7cvBRQ_V-3" value="" style="edgeStyle=orthogonalEdgeStyle;rounded=0;orthogonalLoop=1;jettySize=auto;html=1;" edge="1" parent="WIyWlLk6GJQsqaUBKTNV-1" source="IYbiM6dV4bmUepGeTCrN-0" target="pTl-VRT4gUxG7cvBRQ_V-2">
          <mxGeometry relative="1" as="geometry" />
        </mxCell>
        <mxCell id="IYbiM6dV4bmUepGeTCrN-0" value="Start" style="ellipse;whiteSpace=wrap;html=1;" parent="WIyWlLk6GJQsqaUBKTNV-1" vertex="1">
          <mxGeometry x="180" y="70" width="120" height="80" as="geometry" />
        </mxCell>
        <mxCell id="pTl-VRT4gUxG7cvBRQ_V-5" value="" style="edgeStyle=orthogonalEdgeStyle;rounded=0;orthogonalLoop=1;jettySize=auto;html=1;" edge="1" parent="WIyWlLk6GJQsqaUBKTNV-1" source="pTl-VRT4gUxG7cvBRQ_V-2" target="pTl-VRT4gUxG7cvBRQ_V-4">
          <mxGeometry relative="1" as="geometry" />
        </mxCell>
        <mxCell id="pTl-VRT4gUxG7cvBRQ_V-2" value="n = 4&lt;br&gt;int i= 0" style="rounded=0;whiteSpace=wrap;html=1;" vertex="1" parent="WIyWlLk6GJQsqaUBKTNV-1">
          <mxGeometry x="180" y="190" width="120" height="60" as="geometry" />
        </mxCell>
        <mxCell id="pTl-VRT4gUxG7cvBRQ_V-16" value="" style="edgeStyle=orthogonalEdgeStyle;rounded=0;orthogonalLoop=1;jettySize=auto;html=1;" edge="1" parent="WIyWlLk6GJQsqaUBKTNV-1" source="pTl-VRT4gUxG7cvBRQ_V-4" target="pTl-VRT4gUxG7cvBRQ_V-15">
          <mxGeometry relative="1" as="geometry" />
        </mxCell>
        <mxCell id="pTl-VRT4gUxG7cvBRQ_V-4" value="" style="ellipse;whiteSpace=wrap;html=1;rounded=0;" vertex="1" parent="WIyWlLk6GJQsqaUBKTNV-1">
          <mxGeometry x="220" y="270" width="40" height="40" as="geometry" />
        </mxCell>
        <mxCell id="pTl-VRT4gUxG7cvBRQ_V-10" value="" style="edgeStyle=orthogonalEdgeStyle;rounded=0;orthogonalLoop=1;jettySize=auto;html=1;" edge="1" parent="WIyWlLk6GJQsqaUBKTNV-1" source="pTl-VRT4gUxG7cvBRQ_V-6" target="pTl-VRT4gUxG7cvBRQ_V-9">
          <mxGeometry relative="1" as="geometry" />
        </mxCell>
        <mxCell id="pTl-VRT4gUxG7cvBRQ_V-6" value="int j = 0" style="rounded=0;whiteSpace=wrap;html=1;" vertex="1" parent="WIyWlLk6GJQsqaUBKTNV-1">
          <mxGeometry x="180" y="470" width="120" height="60" as="geometry" />
        </mxCell>
        <mxCell id="pTl-VRT4gUxG7cvBRQ_V-14" value="" style="edgeStyle=orthogonalEdgeStyle;rounded=0;orthogonalLoop=1;jettySize=auto;html=1;" edge="1" parent="WIyWlLk6GJQsqaUBKTNV-1" source="pTl-VRT4gUxG7cvBRQ_V-9" target="pTl-VRT4gUxG7cvBRQ_V-13">
          <mxGeometry relative="1" as="geometry" />
        </mxCell>
        <mxCell id="pTl-VRT4gUxG7cvBRQ_V-9" value="" style="ellipse;whiteSpace=wrap;html=1;rounded=0;" vertex="1" parent="WIyWlLk6GJQsqaUBKTNV-1">
          <mxGeometry x="220" y="550" width="40" height="40" as="geometry" />
        </mxCell>
        <mxCell id="pTl-VRT4gUxG7cvBRQ_V-20" value="" style="edgeStyle=orthogonalEdgeStyle;rounded=0;orthogonalLoop=1;jettySize=auto;html=1;" edge="1" parent="WIyWlLk6GJQsqaUBKTNV-1" source="pTl-VRT4gUxG7cvBRQ_V-13" target="pTl-VRT4gUxG7cvBRQ_V-19">
          <mxGeometry relative="1" as="geometry" />
        </mxCell>
        <mxCell id="pTl-VRT4gUxG7cvBRQ_V-23" value="" style="edgeStyle=orthogonalEdgeStyle;rounded=0;orthogonalLoop=1;jettySize=auto;html=1;" edge="1" parent="WIyWlLk6GJQsqaUBKTNV-1" source="pTl-VRT4gUxG7cvBRQ_V-13" target="pTl-VRT4gUxG7cvBRQ_V-22">
          <mxGeometry relative="1" as="geometry" />
        </mxCell>
        <mxCell id="pTl-VRT4gUxG7cvBRQ_V-13" value="j &amp;lt; 4" style="rhombus;whiteSpace=wrap;html=1;rounded=0;" vertex="1" parent="WIyWlLk6GJQsqaUBKTNV-1">
          <mxGeometry x="200" y="620" width="80" height="80" as="geometry" />
        </mxCell>
        <mxCell id="pTl-VRT4gUxG7cvBRQ_V-17" value="" style="edgeStyle=orthogonalEdgeStyle;rounded=0;orthogonalLoop=1;jettySize=auto;html=1;" edge="1" parent="WIyWlLk6GJQsqaUBKTNV-1" source="pTl-VRT4gUxG7cvBRQ_V-15" target="pTl-VRT4gUxG7cvBRQ_V-6">
          <mxGeometry relative="1" as="geometry" />
        </mxCell>
        <mxCell id="pTl-VRT4gUxG7cvBRQ_V-18" value="Ya" style="edgeLabel;html=1;align=center;verticalAlign=middle;resizable=0;points=[];" vertex="1" connectable="0" parent="pTl-VRT4gUxG7cvBRQ_V-17">
          <mxGeometry x="-0.28" y="2" relative="1" as="geometry">
            <mxPoint as="offset" />
          </mxGeometry>
        </mxCell>
        <mxCell id="pTl-VRT4gUxG7cvBRQ_V-31" style="edgeStyle=orthogonalEdgeStyle;rounded=0;orthogonalLoop=1;jettySize=auto;html=1;entryX=0;entryY=0.5;entryDx=0;entryDy=0;" edge="1" parent="WIyWlLk6GJQsqaUBKTNV-1" source="pTl-VRT4gUxG7cvBRQ_V-15" target="pTl-VRT4gUxG7cvBRQ_V-30">
          <mxGeometry relative="1" as="geometry">
            <Array as="points">
              <mxPoint x="110" y="380" />
              <mxPoint x="110" y="970" />
            </Array>
          </mxGeometry>
        </mxCell>
        <mxCell id="pTl-VRT4gUxG7cvBRQ_V-15" value="i &amp;lt; n" style="rhombus;whiteSpace=wrap;html=1;rounded=0;" vertex="1" parent="WIyWlLk6GJQsqaUBKTNV-1">
          <mxGeometry x="200" y="340" width="80" height="80" as="geometry" />
        </mxCell>
        <mxCell id="pTl-VRT4gUxG7cvBRQ_V-27" value="" style="edgeStyle=orthogonalEdgeStyle;rounded=0;orthogonalLoop=1;jettySize=auto;html=1;" edge="1" parent="WIyWlLk6GJQsqaUBKTNV-1" source="pTl-VRT4gUxG7cvBRQ_V-19" target="pTl-VRT4gUxG7cvBRQ_V-26">
          <mxGeometry relative="1" as="geometry" />
        </mxCell>
        <mxCell id="pTl-VRT4gUxG7cvBRQ_V-19" value="print *" style="shape=parallelogram;perimeter=parallelogramPerimeter;whiteSpace=wrap;html=1;fixedSize=1;rounded=0;" vertex="1" parent="WIyWlLk6GJQsqaUBKTNV-1">
          <mxGeometry x="180" y="740" width="120" height="60" as="geometry" />
        </mxCell>
        <mxCell id="pTl-VRT4gUxG7cvBRQ_V-25" value="" style="edgeStyle=orthogonalEdgeStyle;rounded=0;orthogonalLoop=1;jettySize=auto;html=1;" edge="1" parent="WIyWlLk6GJQsqaUBKTNV-1" source="pTl-VRT4gUxG7cvBRQ_V-22" target="pTl-VRT4gUxG7cvBRQ_V-24">
          <mxGeometry relative="1" as="geometry" />
        </mxCell>
        <mxCell id="pTl-VRT4gUxG7cvBRQ_V-22" value="println &quot; &quot;" style="shape=parallelogram;perimeter=parallelogramPerimeter;whiteSpace=wrap;html=1;fixedSize=1;rounded=0;" vertex="1" parent="WIyWlLk6GJQsqaUBKTNV-1">
          <mxGeometry x="340" y="630" width="120" height="60" as="geometry" />
        </mxCell>
        <mxCell id="pTl-VRT4gUxG7cvBRQ_V-29" style="edgeStyle=orthogonalEdgeStyle;rounded=0;orthogonalLoop=1;jettySize=auto;html=1;entryX=1;entryY=0.5;entryDx=0;entryDy=0;" edge="1" parent="WIyWlLk6GJQsqaUBKTNV-1" source="pTl-VRT4gUxG7cvBRQ_V-24" target="pTl-VRT4gUxG7cvBRQ_V-4">
          <mxGeometry relative="1" as="geometry">
            <Array as="points">
              <mxPoint x="560" y="290" />
            </Array>
          </mxGeometry>
        </mxCell>
        <mxCell id="pTl-VRT4gUxG7cvBRQ_V-24" value="i++" style="whiteSpace=wrap;html=1;rounded=0;" vertex="1" parent="WIyWlLk6GJQsqaUBKTNV-1">
          <mxGeometry x="500" y="630" width="120" height="60" as="geometry" />
        </mxCell>
        <mxCell id="pTl-VRT4gUxG7cvBRQ_V-28" style="edgeStyle=orthogonalEdgeStyle;rounded=0;orthogonalLoop=1;jettySize=auto;html=1;entryX=0;entryY=0.5;entryDx=0;entryDy=0;" edge="1" parent="WIyWlLk6GJQsqaUBKTNV-1" source="pTl-VRT4gUxG7cvBRQ_V-26" target="pTl-VRT4gUxG7cvBRQ_V-9">
          <mxGeometry relative="1" as="geometry">
            <Array as="points">
              <mxPoint x="160" y="860" />
              <mxPoint x="160" y="570" />
            </Array>
          </mxGeometry>
        </mxCell>
        <mxCell id="pTl-VRT4gUxG7cvBRQ_V-26" value="j++" style="whiteSpace=wrap;html=1;rounded=0;" vertex="1" parent="WIyWlLk6GJQsqaUBKTNV-1">
          <mxGeometry x="180" y="830" width="120" height="60" as="geometry" />
        </mxCell>
        <mxCell id="pTl-VRT4gUxG7cvBRQ_V-30" value="Start" style="ellipse;whiteSpace=wrap;html=1;" vertex="1" parent="WIyWlLk6GJQsqaUBKTNV-1">
          <mxGeometry x="180" y="930" width="120" height="80" as="geometry" />
        </mxCell>
        <mxCell id="pTl-VRT4gUxG7cvBRQ_V-32" value="" style="rounded=0;whiteSpace=wrap;html=1;fillColor=none;dashed=1;strokeColor=#CC0066;strokeWidth=2;" vertex="1" parent="WIyWlLk6GJQsqaUBKTNV-1">
          <mxGeometry x="120" y="260" width="520" height="650" as="geometry" />
        </mxCell>
        <mxCell id="pTl-VRT4gUxG7cvBRQ_V-33" value="" style="rounded=0;whiteSpace=wrap;html=1;fillColor=none;dashed=1;strokeColor=#3333FF;strokeWidth=2;" vertex="1" parent="WIyWlLk6GJQsqaUBKTNV-1">
          <mxGeometry x="150" y="540" width="320" height="360" as="geometry" />
        </mxCell>
      </root>
    </mxGraphModel>
  </diagram>
  <diagram name="Studi Case 2" id="UpCRgoLP9EMDievpy5rd">
    <mxGraphModel dx="791" dy="876" grid="1" gridSize="10" guides="1" tooltips="1" connect="1" arrows="1" fold="1" page="1" pageScale="1" pageWidth="827" pageHeight="1169" math="0" shadow="0">
      <root>
        <mxCell id="UQOPfPNxJdvIHZzvTJ9f-0" />
        <mxCell id="UQOPfPNxJdvIHZzvTJ9f-1" parent="UQOPfPNxJdvIHZzvTJ9f-0" />
        <mxCell id="UQOPfPNxJdvIHZzvTJ9f-28" value="" style="rounded=0;whiteSpace=wrap;html=1;fillColor=none;dashed=1;strokeColor=#CC0066;strokeWidth=2;" vertex="1" parent="UQOPfPNxJdvIHZzvTJ9f-1">
          <mxGeometry x="120" y="260" width="520" height="650" as="geometry" />
        </mxCell>
        <mxCell id="UQOPfPNxJdvIHZzvTJ9f-29" value="" style="rounded=0;whiteSpace=wrap;html=1;fillColor=none;dashed=1;strokeColor=#3333FF;strokeWidth=2;" vertex="1" parent="UQOPfPNxJdvIHZzvTJ9f-1">
          <mxGeometry x="150" y="540" width="320" height="360" as="geometry" />
        </mxCell>
        <mxCell id="UQOPfPNxJdvIHZzvTJ9f-2" value="" style="edgeStyle=orthogonalEdgeStyle;rounded=0;orthogonalLoop=1;jettySize=auto;html=1;" edge="1" parent="UQOPfPNxJdvIHZzvTJ9f-1" source="UQOPfPNxJdvIHZzvTJ9f-3" target="UQOPfPNxJdvIHZzvTJ9f-5">
          <mxGeometry relative="1" as="geometry" />
        </mxCell>
        <mxCell id="UQOPfPNxJdvIHZzvTJ9f-3" value="Start" style="ellipse;whiteSpace=wrap;html=1;" vertex="1" parent="UQOPfPNxJdvIHZzvTJ9f-1">
          <mxGeometry x="180" y="70" width="120" height="80" as="geometry" />
        </mxCell>
        <mxCell id="UQOPfPNxJdvIHZzvTJ9f-4" value="" style="edgeStyle=orthogonalEdgeStyle;rounded=0;orthogonalLoop=1;jettySize=auto;html=1;" edge="1" parent="UQOPfPNxJdvIHZzvTJ9f-1" source="UQOPfPNxJdvIHZzvTJ9f-5" target="UQOPfPNxJdvIHZzvTJ9f-7">
          <mxGeometry relative="1" as="geometry" />
        </mxCell>
        <mxCell id="UQOPfPNxJdvIHZzvTJ9f-5" value="n = 10&lt;br&gt;int i= 0" style="rounded=0;whiteSpace=wrap;html=1;" vertex="1" parent="UQOPfPNxJdvIHZzvTJ9f-1">
          <mxGeometry x="180" y="190" width="120" height="60" as="geometry" />
        </mxCell>
        <mxCell id="UQOPfPNxJdvIHZzvTJ9f-6" value="" style="edgeStyle=orthogonalEdgeStyle;rounded=0;orthogonalLoop=1;jettySize=auto;html=1;" edge="1" parent="UQOPfPNxJdvIHZzvTJ9f-1" source="UQOPfPNxJdvIHZzvTJ9f-7" target="UQOPfPNxJdvIHZzvTJ9f-18">
          <mxGeometry relative="1" as="geometry" />
        </mxCell>
        <mxCell id="UQOPfPNxJdvIHZzvTJ9f-7" value="" style="ellipse;whiteSpace=wrap;html=1;rounded=0;" vertex="1" parent="UQOPfPNxJdvIHZzvTJ9f-1">
          <mxGeometry x="220" y="270" width="40" height="40" as="geometry" />
        </mxCell>
        <mxCell id="UQOPfPNxJdvIHZzvTJ9f-8" value="" style="edgeStyle=orthogonalEdgeStyle;rounded=0;orthogonalLoop=1;jettySize=auto;html=1;" edge="1" parent="UQOPfPNxJdvIHZzvTJ9f-1" source="UQOPfPNxJdvIHZzvTJ9f-9" target="UQOPfPNxJdvIHZzvTJ9f-11">
          <mxGeometry relative="1" as="geometry" />
        </mxCell>
        <mxCell id="UQOPfPNxJdvIHZzvTJ9f-9" value="int j = 0" style="rounded=0;whiteSpace=wrap;html=1;" vertex="1" parent="UQOPfPNxJdvIHZzvTJ9f-1">
          <mxGeometry x="180" y="470" width="120" height="60" as="geometry" />
        </mxCell>
        <mxCell id="UQOPfPNxJdvIHZzvTJ9f-10" value="" style="edgeStyle=orthogonalEdgeStyle;rounded=0;orthogonalLoop=1;jettySize=auto;html=1;" edge="1" parent="UQOPfPNxJdvIHZzvTJ9f-1" source="UQOPfPNxJdvIHZzvTJ9f-11" target="UQOPfPNxJdvIHZzvTJ9f-14">
          <mxGeometry relative="1" as="geometry" />
        </mxCell>
        <mxCell id="UQOPfPNxJdvIHZzvTJ9f-11" value="" style="ellipse;whiteSpace=wrap;html=1;rounded=0;" vertex="1" parent="UQOPfPNxJdvIHZzvTJ9f-1">
          <mxGeometry x="220" y="550" width="40" height="40" as="geometry" />
        </mxCell>
        <mxCell id="UQOPfPNxJdvIHZzvTJ9f-12" value="" style="edgeStyle=orthogonalEdgeStyle;rounded=0;orthogonalLoop=1;jettySize=auto;html=1;" edge="1" parent="UQOPfPNxJdvIHZzvTJ9f-1" source="UQOPfPNxJdvIHZzvTJ9f-14" target="UQOPfPNxJdvIHZzvTJ9f-20">
          <mxGeometry relative="1" as="geometry" />
        </mxCell>
        <mxCell id="UQOPfPNxJdvIHZzvTJ9f-13" value="" style="edgeStyle=orthogonalEdgeStyle;rounded=0;orthogonalLoop=1;jettySize=auto;html=1;" edge="1" parent="UQOPfPNxJdvIHZzvTJ9f-1" source="UQOPfPNxJdvIHZzvTJ9f-14" target="UQOPfPNxJdvIHZzvTJ9f-22">
          <mxGeometry relative="1" as="geometry" />
        </mxCell>
        <mxCell id="UQOPfPNxJdvIHZzvTJ9f-14" value="j&amp;nbsp; &amp;lt;= i" style="rhombus;whiteSpace=wrap;html=1;rounded=0;" vertex="1" parent="UQOPfPNxJdvIHZzvTJ9f-1">
          <mxGeometry x="200" y="620" width="80" height="80" as="geometry" />
        </mxCell>
        <mxCell id="UQOPfPNxJdvIHZzvTJ9f-15" value="" style="edgeStyle=orthogonalEdgeStyle;rounded=0;orthogonalLoop=1;jettySize=auto;html=1;" edge="1" parent="UQOPfPNxJdvIHZzvTJ9f-1" source="UQOPfPNxJdvIHZzvTJ9f-18" target="UQOPfPNxJdvIHZzvTJ9f-9">
          <mxGeometry relative="1" as="geometry" />
        </mxCell>
        <mxCell id="UQOPfPNxJdvIHZzvTJ9f-16" value="Ya" style="edgeLabel;html=1;align=center;verticalAlign=middle;resizable=0;points=[];" vertex="1" connectable="0" parent="UQOPfPNxJdvIHZzvTJ9f-15">
          <mxGeometry x="-0.28" y="2" relative="1" as="geometry">
            <mxPoint as="offset" />
          </mxGeometry>
        </mxCell>
        <mxCell id="UQOPfPNxJdvIHZzvTJ9f-17" style="edgeStyle=orthogonalEdgeStyle;rounded=0;orthogonalLoop=1;jettySize=auto;html=1;entryX=0;entryY=0.5;entryDx=0;entryDy=0;" edge="1" parent="UQOPfPNxJdvIHZzvTJ9f-1" source="UQOPfPNxJdvIHZzvTJ9f-18" target="UQOPfPNxJdvIHZzvTJ9f-27">
          <mxGeometry relative="1" as="geometry">
            <Array as="points">
              <mxPoint x="110" y="380" />
              <mxPoint x="110" y="970" />
            </Array>
          </mxGeometry>
        </mxCell>
        <mxCell id="UQOPfPNxJdvIHZzvTJ9f-18" value="i &amp;lt; n" style="rhombus;whiteSpace=wrap;html=1;rounded=0;" vertex="1" parent="UQOPfPNxJdvIHZzvTJ9f-1">
          <mxGeometry x="200" y="340" width="80" height="80" as="geometry" />
        </mxCell>
        <mxCell id="UQOPfPNxJdvIHZzvTJ9f-19" value="" style="edgeStyle=orthogonalEdgeStyle;rounded=0;orthogonalLoop=1;jettySize=auto;html=1;" edge="1" parent="UQOPfPNxJdvIHZzvTJ9f-1" source="UQOPfPNxJdvIHZzvTJ9f-20" target="UQOPfPNxJdvIHZzvTJ9f-26">
          <mxGeometry relative="1" as="geometry" />
        </mxCell>
        <mxCell id="UQOPfPNxJdvIHZzvTJ9f-20" value="print *" style="shape=parallelogram;perimeter=parallelogramPerimeter;whiteSpace=wrap;html=1;fixedSize=1;rounded=0;" vertex="1" parent="UQOPfPNxJdvIHZzvTJ9f-1">
          <mxGeometry x="180" y="740" width="120" height="60" as="geometry" />
        </mxCell>
        <mxCell id="UQOPfPNxJdvIHZzvTJ9f-21" value="" style="edgeStyle=orthogonalEdgeStyle;rounded=0;orthogonalLoop=1;jettySize=auto;html=1;" edge="1" parent="UQOPfPNxJdvIHZzvTJ9f-1" source="UQOPfPNxJdvIHZzvTJ9f-22" target="UQOPfPNxJdvIHZzvTJ9f-24">
          <mxGeometry relative="1" as="geometry" />
        </mxCell>
        <mxCell id="UQOPfPNxJdvIHZzvTJ9f-22" value="println &quot; &quot;" style="shape=parallelogram;perimeter=parallelogramPerimeter;whiteSpace=wrap;html=1;fixedSize=1;rounded=0;" vertex="1" parent="UQOPfPNxJdvIHZzvTJ9f-1">
          <mxGeometry x="340" y="630" width="120" height="60" as="geometry" />
        </mxCell>
        <mxCell id="UQOPfPNxJdvIHZzvTJ9f-23" style="edgeStyle=orthogonalEdgeStyle;rounded=0;orthogonalLoop=1;jettySize=auto;html=1;entryX=1;entryY=0.5;entryDx=0;entryDy=0;" edge="1" parent="UQOPfPNxJdvIHZzvTJ9f-1" source="UQOPfPNxJdvIHZzvTJ9f-24" target="UQOPfPNxJdvIHZzvTJ9f-7">
          <mxGeometry relative="1" as="geometry">
            <Array as="points">
              <mxPoint x="560" y="290" />
            </Array>
          </mxGeometry>
        </mxCell>
        <mxCell id="UQOPfPNxJdvIHZzvTJ9f-24" value="i++" style="whiteSpace=wrap;html=1;rounded=0;" vertex="1" parent="UQOPfPNxJdvIHZzvTJ9f-1">
          <mxGeometry x="500" y="630" width="120" height="60" as="geometry" />
        </mxCell>
        <mxCell id="UQOPfPNxJdvIHZzvTJ9f-25" style="edgeStyle=orthogonalEdgeStyle;rounded=0;orthogonalLoop=1;jettySize=auto;html=1;entryX=0;entryY=0.5;entryDx=0;entryDy=0;" edge="1" parent="UQOPfPNxJdvIHZzvTJ9f-1" source="UQOPfPNxJdvIHZzvTJ9f-26" target="UQOPfPNxJdvIHZzvTJ9f-11">
          <mxGeometry relative="1" as="geometry">
            <Array as="points">
              <mxPoint x="160" y="860" />
              <mxPoint x="160" y="570" />
            </Array>
          </mxGeometry>
        </mxCell>
        <mxCell id="UQOPfPNxJdvIHZzvTJ9f-26" value="j++" style="whiteSpace=wrap;html=1;rounded=0;" vertex="1" parent="UQOPfPNxJdvIHZzvTJ9f-1">
          <mxGeometry x="180" y="830" width="120" height="60" as="geometry" />
        </mxCell>
        <mxCell id="UQOPfPNxJdvIHZzvTJ9f-27" value="Start" style="ellipse;whiteSpace=wrap;html=1;" vertex="1" parent="UQOPfPNxJdvIHZzvTJ9f-1">
          <mxGeometry x="180" y="930" width="120" height="80" as="geometry" />
        </mxCell>
      </root>
    </mxGraphModel>
  </diagram>
  <diagram id="POKOIN01fZQBmkjWjuxg" name="Studi Case 3">
    <mxGraphModel dx="527" dy="584" grid="1" gridSize="10" guides="1" tooltips="1" connect="1" arrows="1" fold="1" page="1" pageScale="1" pageWidth="827" pageHeight="1169" math="0" shadow="0">
      <root>
        <mxCell id="0" />
        <mxCell id="1" parent="0" />
        <mxCell id="_V2bOaYjusm_407l7yLq-1" value="" style="rounded=0;whiteSpace=wrap;html=1;fillColor=none;dashed=1;strokeColor=#CC0066;strokeWidth=2;" vertex="1" parent="1">
          <mxGeometry x="120" y="260" width="520" height="650" as="geometry" />
        </mxCell>
        <mxCell id="_V2bOaYjusm_407l7yLq-2" value="" style="rounded=0;whiteSpace=wrap;html=1;fillColor=none;dashed=1;strokeColor=#3333FF;strokeWidth=2;" vertex="1" parent="1">
          <mxGeometry x="150" y="540" width="320" height="360" as="geometry" />
        </mxCell>
        <mxCell id="_V2bOaYjusm_407l7yLq-3" value="" style="edgeStyle=orthogonalEdgeStyle;rounded=0;orthogonalLoop=1;jettySize=auto;html=1;" edge="1" parent="1" source="_V2bOaYjusm_407l7yLq-4" target="_V2bOaYjusm_407l7yLq-6">
          <mxGeometry relative="1" as="geometry" />
        </mxCell>
        <mxCell id="_V2bOaYjusm_407l7yLq-4" value="Start" style="ellipse;whiteSpace=wrap;html=1;" vertex="1" parent="1">
          <mxGeometry x="180" y="70" width="120" height="80" as="geometry" />
        </mxCell>
        <mxCell id="_V2bOaYjusm_407l7yLq-5" value="" style="edgeStyle=orthogonalEdgeStyle;rounded=0;orthogonalLoop=1;jettySize=auto;html=1;" edge="1" parent="1" source="_V2bOaYjusm_407l7yLq-6" target="_V2bOaYjusm_407l7yLq-8">
          <mxGeometry relative="1" as="geometry" />
        </mxCell>
        <mxCell id="_V2bOaYjusm_407l7yLq-6" value="n = 10&lt;br&gt;int i= 0" style="rounded=0;whiteSpace=wrap;html=1;" vertex="1" parent="1">
          <mxGeometry x="180" y="190" width="120" height="60" as="geometry" />
        </mxCell>
        <mxCell id="_V2bOaYjusm_407l7yLq-7" value="" style="edgeStyle=orthogonalEdgeStyle;rounded=0;orthogonalLoop=1;jettySize=auto;html=1;" edge="1" parent="1" source="_V2bOaYjusm_407l7yLq-8" target="_V2bOaYjusm_407l7yLq-19">
          <mxGeometry relative="1" as="geometry" />
        </mxCell>
        <mxCell id="_V2bOaYjusm_407l7yLq-8" value="" style="ellipse;whiteSpace=wrap;html=1;rounded=0;" vertex="1" parent="1">
          <mxGeometry x="220" y="270" width="40" height="40" as="geometry" />
        </mxCell>
        <mxCell id="_V2bOaYjusm_407l7yLq-9" value="" style="edgeStyle=orthogonalEdgeStyle;rounded=0;orthogonalLoop=1;jettySize=auto;html=1;" edge="1" parent="1" source="_V2bOaYjusm_407l7yLq-10" target="_V2bOaYjusm_407l7yLq-12">
          <mxGeometry relative="1" as="geometry" />
        </mxCell>
        <mxCell id="_V2bOaYjusm_407l7yLq-10" value="int j = n - 1" style="rounded=0;whiteSpace=wrap;html=1;" vertex="1" parent="1">
          <mxGeometry x="180" y="470" width="120" height="60" as="geometry" />
        </mxCell>
        <mxCell id="_V2bOaYjusm_407l7yLq-11" value="" style="edgeStyle=orthogonalEdgeStyle;rounded=0;orthogonalLoop=1;jettySize=auto;html=1;" edge="1" parent="1" source="_V2bOaYjusm_407l7yLq-12" target="_V2bOaYjusm_407l7yLq-15">
          <mxGeometry relative="1" as="geometry" />
        </mxCell>
        <mxCell id="_V2bOaYjusm_407l7yLq-12" value="" style="ellipse;whiteSpace=wrap;html=1;rounded=0;" vertex="1" parent="1">
          <mxGeometry x="220" y="550" width="40" height="40" as="geometry" />
        </mxCell>
        <mxCell id="_V2bOaYjusm_407l7yLq-13" value="" style="edgeStyle=orthogonalEdgeStyle;rounded=0;orthogonalLoop=1;jettySize=auto;html=1;" edge="1" parent="1" source="_V2bOaYjusm_407l7yLq-15" target="_V2bOaYjusm_407l7yLq-21">
          <mxGeometry relative="1" as="geometry" />
        </mxCell>
        <mxCell id="_V2bOaYjusm_407l7yLq-14" value="" style="edgeStyle=orthogonalEdgeStyle;rounded=0;orthogonalLoop=1;jettySize=auto;html=1;" edge="1" parent="1" source="_V2bOaYjusm_407l7yLq-15" target="_V2bOaYjusm_407l7yLq-23">
          <mxGeometry relative="1" as="geometry" />
        </mxCell>
        <mxCell id="_V2bOaYjusm_407l7yLq-15" value="j &amp;gt; 0" style="rhombus;whiteSpace=wrap;html=1;rounded=0;" vertex="1" parent="1">
          <mxGeometry x="200" y="620" width="80" height="80" as="geometry" />
        </mxCell>
        <mxCell id="_V2bOaYjusm_407l7yLq-16" value="" style="edgeStyle=orthogonalEdgeStyle;rounded=0;orthogonalLoop=1;jettySize=auto;html=1;" edge="1" parent="1" source="_V2bOaYjusm_407l7yLq-19" target="_V2bOaYjusm_407l7yLq-10">
          <mxGeometry relative="1" as="geometry" />
        </mxCell>
        <mxCell id="_V2bOaYjusm_407l7yLq-17" value="Ya" style="edgeLabel;html=1;align=center;verticalAlign=middle;resizable=0;points=[];" vertex="1" connectable="0" parent="_V2bOaYjusm_407l7yLq-16">
          <mxGeometry x="-0.28" y="2" relative="1" as="geometry">
            <mxPoint as="offset" />
          </mxGeometry>
        </mxCell>
        <mxCell id="_V2bOaYjusm_407l7yLq-18" style="edgeStyle=orthogonalEdgeStyle;rounded=0;orthogonalLoop=1;jettySize=auto;html=1;entryX=0;entryY=0.5;entryDx=0;entryDy=0;" edge="1" parent="1" source="_V2bOaYjusm_407l7yLq-19" target="_V2bOaYjusm_407l7yLq-28">
          <mxGeometry relative="1" as="geometry">
            <Array as="points">
              <mxPoint x="110" y="380" />
              <mxPoint x="110" y="970" />
            </Array>
          </mxGeometry>
        </mxCell>
        <mxCell id="_V2bOaYjusm_407l7yLq-19" value="i &amp;lt;= n" style="rhombus;whiteSpace=wrap;html=1;rounded=0;" vertex="1" parent="1">
          <mxGeometry x="200" y="340" width="80" height="80" as="geometry" />
        </mxCell>
        <mxCell id="_V2bOaYjusm_407l7yLq-20" value="" style="edgeStyle=orthogonalEdgeStyle;rounded=0;orthogonalLoop=1;jettySize=auto;html=1;" edge="1" parent="1" source="_V2bOaYjusm_407l7yLq-21" target="_V2bOaYjusm_407l7yLq-27">
          <mxGeometry relative="1" as="geometry" />
        </mxCell>
        <mxCell id="_V2bOaYjusm_407l7yLq-21" value="print *" style="shape=parallelogram;perimeter=parallelogramPerimeter;whiteSpace=wrap;html=1;fixedSize=1;rounded=0;" vertex="1" parent="1">
          <mxGeometry x="180" y="740" width="120" height="60" as="geometry" />
        </mxCell>
        <mxCell id="_V2bOaYjusm_407l7yLq-22" value="" style="edgeStyle=orthogonalEdgeStyle;rounded=0;orthogonalLoop=1;jettySize=auto;html=1;" edge="1" parent="1" source="_V2bOaYjusm_407l7yLq-23" target="_V2bOaYjusm_407l7yLq-25">
          <mxGeometry relative="1" as="geometry" />
        </mxCell>
        <mxCell id="_V2bOaYjusm_407l7yLq-23" value="println &quot; &quot;" style="shape=parallelogram;perimeter=parallelogramPerimeter;whiteSpace=wrap;html=1;fixedSize=1;rounded=0;" vertex="1" parent="1">
          <mxGeometry x="340" y="630" width="120" height="60" as="geometry" />
        </mxCell>
        <mxCell id="_V2bOaYjusm_407l7yLq-24" style="edgeStyle=orthogonalEdgeStyle;rounded=0;orthogonalLoop=1;jettySize=auto;html=1;entryX=1;entryY=0.5;entryDx=0;entryDy=0;" edge="1" parent="1" source="_V2bOaYjusm_407l7yLq-25" target="_V2bOaYjusm_407l7yLq-8">
          <mxGeometry relative="1" as="geometry">
            <Array as="points">
              <mxPoint x="560" y="290" />
            </Array>
          </mxGeometry>
        </mxCell>
        <mxCell id="_V2bOaYjusm_407l7yLq-25" value="i++" style="whiteSpace=wrap;html=1;rounded=0;" vertex="1" parent="1">
          <mxGeometry x="500" y="630" width="120" height="60" as="geometry" />
        </mxCell>
        <mxCell id="_V2bOaYjusm_407l7yLq-26" style="edgeStyle=orthogonalEdgeStyle;rounded=0;orthogonalLoop=1;jettySize=auto;html=1;entryX=0;entryY=0.5;entryDx=0;entryDy=0;" edge="1" parent="1" source="_V2bOaYjusm_407l7yLq-27" target="_V2bOaYjusm_407l7yLq-12">
          <mxGeometry relative="1" as="geometry">
            <Array as="points">
              <mxPoint x="160" y="860" />
              <mxPoint x="160" y="570" />
            </Array>
          </mxGeometry>
        </mxCell>
        <mxCell id="_V2bOaYjusm_407l7yLq-27" value="j--" style="whiteSpace=wrap;html=1;rounded=0;" vertex="1" parent="1">
          <mxGeometry x="180" y="830" width="120" height="60" as="geometry" />
        </mxCell>
        <mxCell id="_V2bOaYjusm_407l7yLq-28" value="Start" style="ellipse;whiteSpace=wrap;html=1;" vertex="1" parent="1">
          <mxGeometry x="180" y="930" width="120" height="80" as="geometry" />
        </mxCell>
      </root>
    </mxGraphModel>
  </diagram>
</mxfile>
